<?xml version="1.0" encoding="UTF-8"?>
<!DOCTYPE svg PUBLIC "-//W3C//DTD SVG 1.1//EN" "http://www.w3.org/Graphics/SVG/1.1/DTD/svg11.dtd">
<!-- Creator: CorelDRAW 2021.5 -->
<svg xmlns="http://www.w3.org/2000/svg" xml:space="preserve" width="35.3003mm" height="35.3003mm" version="1.1" style="shape-rendering:geometricPrecision; text-rendering:geometricPrecision; image-rendering:optimizeQuality; fill-rule:evenodd; clip-rule:evenodd"
viewBox="0 0 319.23 319.23"
 xmlns:xlink="http://www.w3.org/1999/xlink"
 xmlns:xodm="http://www.corel.com/coreldraw/odm/2003">
 <defs>
  <style type="text/css">
   <![CDATA[
    .fil2 {fill:#EA001A}
    .fil1 {fill:#F69E1A}
    .fil0 {fill:white}
   ]]>
  </style>
 </defs>
 <g id="Layer_x0020_1">
  <metadata id="CorelCorpID_0Corel-Layer"/>
  <path class="fil0" d="M182.06 62.81c28.2,0 31.64,-56.1 54.65,-43.32 49.21,27.34 82.52,79.87 82.52,140.17 0,65.44 -38.32,82.08 -95.43,104.82 -29.97,11.93 -39.53,16.52 -53.28,13.65 -86.6,-18.22 -69.96,-5.21 -69.96,-93.71 0,-88.5 -7.01,-121.61 81.47,-121.61l0.02 0z"/>
  <polygon class="fil1" points="148.77,92.51 117.63,123.06 193.74,199.76 148.75,92.51 "/>
  <path class="fil2" d="M159.61 0.02c47.57,0 90.3,20.82 119.53,53.84l-84.81 85.35 -45.56 -46.71 -31.14 30.56 76.11 76.7 109.62 -109.61c10.18,21.02 15.88,44.57 15.88,69.47 0,88.15 -71.46,159.61 -159.62,159.61 -88.15,0 -159.61,-71.47 -159.61,-159.61 0,-88.16 71.46,-159.62 159.61,-159.62l0 0.02z"/>
 </g>
</svg>
